<svg xmlns="http://www.w3.org/2000/svg" viewBox="0 0 56.67 56.67"><defs><style>.cls-1{fill:#2c2f33;}</style></defs><title>15</title><g id="Capa_2" data-name="Capa 2"><g id="Capa_1-2" data-name="Capa 1"><path class="cls-1" d="M28.34,56.67A28.34,28.34,0,1,1,56.67,28.34,28.37,28.37,0,0,1,28.34,56.67Zm0-54.47A26.14,26.14,0,1,0,54.47,28.34,26.16,26.16,0,0,0,28.34,2.2Z"/><path class="cls-1" d="M27.4,32.4v2.32h-9V32.4h3.33V24.21a2.82,2.82,0,0,1-.66.58,7.64,7.64,0,0,1-1,.57,8.5,8.5,0,0,1-1.13.43A3.6,3.6,0,0,1,18,26V23.55a2.7,2.7,0,0,0,1.09-.28,9.22,9.22,0,0,0,1.19-.66,8.84,8.84,0,0,0,1-.75,2.19,2.19,0,0,0,.51-.54h2.65V32.4Z"/><path class="cls-1" d="M34.66,27.28a5.74,5.74,0,0,1,2.17.4,5.44,5.44,0,0,1,1.73,1.1,4.83,4.83,0,0,1,1.15,1.69,5.47,5.47,0,0,1,.42,2.16,5.66,5.66,0,0,1-.46,2.28,5.27,5.27,0,0,1-1.27,1.77,5.81,5.81,0,0,1-1.91,1.14,6.86,6.86,0,0,1-2.37.4,6.44,6.44,0,0,1-3.24-.81,5.46,5.46,0,0,1-2.19-2.2l1.55-1.47a5.25,5.25,0,0,0,1.69,1.59,4.26,4.26,0,0,0,2.21.61,3.33,3.33,0,0,0,2.39-.89,3.09,3.09,0,0,0,.94-2.37,3.07,3.07,0,0,0-.91-2.27,3.26,3.26,0,0,0-2.26-.88,3.62,3.62,0,0,0-1.66.39,3.23,3.23,0,0,0-1.27,1.14H29.09c0-.06.05-.25.11-.56s.13-.71.22-1.18.2-1,.31-1.57.22-1.17.35-1.76c.28-1.39.59-2.95.91-4.67h8.15v2.37H32.87L32,28.24a2.73,2.73,0,0,1,1.06-.7A4.41,4.41,0,0,1,34.66,27.28Z"/><rect class="cls-1" x="27.24" y="7.37" width="2.2" height="9.65"/></g></g></svg>