<svg xmlns="http://www.w3.org/2000/svg" viewBox="0 0 30 30"><defs><style>.cls-1{fill:#e52a17;}.cls-2{fill:#ffd300;}</style></defs><title>espanol</title><g id="Capa_2" data-name="Capa 2"><g id="Capa_1-2" data-name="Capa 1"><path class="cls-1" d="M.44,11.4a15,15,0,1,1,11,18.16A15,15,0,0,1,.44,11.4"/><path class="cls-1" d="M.87,10H29.13A15,15,0,0,0,.87,10"/><path class="cls-2" d="M29.68,18.08l0-.09,0-.17,0-.1,0-.17v-.09a1.55,1.55,0,0,0,0-.21V17.2l0-.26v-.06a1.36,1.36,0,0,0,0-.2.28.28,0,0,0,0-.09.88.88,0,0,0,0-.17v-.09c0-.06,0-.12,0-.17v-.09a1.34,1.34,0,0,0,0-.2v-.06c0-.09,0-.17,0-.26v0c0-.07,0-.14,0-.22v-.6c0-.07,0-.13,0-.19v-.07l0-.51v-.07c0-.06,0-.12,0-.19v-.08c0-.06,0-.11,0-.17v-.08l0-.19v-.07c0-.17-.05-.34-.08-.5v-.05l0-.2,0-.07,0-.19,0-.07,0-.18,0-.07c0-.07,0-.15-.05-.22v0l-.06-.24h0c-.12-.44-.25-.87-.4-1.3H.87c-.16.47-.31.95-.43,1.44a14.82,14.82,0,0,0-.25,6v0a1.55,1.55,0,0,0,0,.21v0a1.77,1.77,0,0,1,0,.2v.06c0,.06,0,.12,0,.18v.07a1.16,1.16,0,0,1,0,.18l0,.08c0,.05,0,.11,0,.16l0,.13c0,.06,0,.12,0,.18s0,.12.05.18l0,.08a1.54,1.54,0,0,1,.05.17l0,.08a.84.84,0,0,0,0,.17l0,.08a.84.84,0,0,0,.05.17l0,.08.06.17v0h0a.49.49,0,0,1,0,.11H29.07a.49.49,0,0,1,0-.11h0l.09-.26v0l.11-.35,0-.05.09-.33a.19.19,0,0,0,0-.07c0-.13.07-.26.11-.4l.06-.26s0-.05,0-.08a1.16,1.16,0,0,1,0-.18"/></g></g></svg>