<svg xmlns="http://www.w3.org/2000/svg" viewBox="0 0 30 30"><defs><style>.cls-1{fill:#f6f6f6;}.cls-2{fill:#e52a17;}.cls-3{fill:#24346b;}</style></defs><title>ingles</title><g id="Capa_2" data-name="Capa 2"><g id="Capa_1-2" data-name="Capa 1"><path class="cls-1" d="M.44,11.4a15,15,0,1,1,11,18.16A15,15,0,0,1,.44,11.4"/><path class="cls-2" d="M28.87,9.3H17.25v2.29H29.61a15.29,15.29,0,0,0-.74-2.29m-3-4.6H17.25V7H27.69a15.87,15.87,0,0,0-1.78-2.3M4.17,25.37H25.83a15,15,0,0,0,1.81-2.29H2.37a14.18,14.18,0,0,0,1.8,2.29M18.6.44Q17.92.28,17.25.17V2.41h5.9a15,15,0,0,0-4.55-2M30,13.89H17.25v2.3H30a14.73,14.73,0,0,0,0-2.3M1.16,20.78H28.84a15.46,15.46,0,0,0,.72-2.18l0-.12H.41a15.08,15.08,0,0,0,.75,2.3M11.4,29.56a15.19,15.19,0,0,0,2.65.41H16A14.91,14.91,0,0,0,23,27.67H7a15.12,15.12,0,0,0,4.43,1.89"/><path class="cls-3" d="M16.12,15.35l-.33-.24-.32.24.12-.39-.32-.23h.4l.12-.38.12.38h.41L16,15ZM14.52,3.26l.13.38-.33-.23L14,3.64l.12-.38L13.8,3h.4l.12-.38.13.38h.4Zm0,3.45.13.38-.33-.23L14,7.09l.12-.38-.32-.23h.4l.12-.39.13.39h.4Zm0,3.38.13.39-.33-.24-.32.24.12-.39-.32-.23h.4l.12-.38.13.38h.4Zm.1,3.73-.33-.24-.32.24.12-.38-.32-.24h.4l.12-.38.13.38h.4l-.33.24ZM13,4.93l.13.38-.33-.23-.32.23.12-.38-.32-.23h.4l.12-.38.13.38h.4Zm0,3.35.13.38-.33-.24-.32.24.12-.38L12.27,8h.4l.12-.38.13.38h.4Zm0,3.42.13.38-.33-.24-.32.24.12-.38-.32-.24h.4l.12-.38.13.38h.4Zm.13,3.65-.33-.24-.32.24.12-.39-.32-.23h.4l.12-.38.13.38h.4L13,15ZM11.52,3.26l.13.38-.33-.23L11,3.64l.12-.38L10.8,3h.4l.12-.38.13.38h.4Zm0,3.45.13.38-.33-.23L11,7.09l.12-.38-.32-.23h.4l.12-.39.13.39h.4Zm0,3.38.12.39-.33-.24-.32.24.12-.39-.32-.23h.4l.12-.38.13.38h.4Zm.09,3.73-.33-.24-.32.24.12-.38-.32-.24h.4l.12-.38.13.38h.4l-.33.24ZM10,1.59l.12.38-.33-.24L9.47,2l.12-.38-.32-.24h.4L9.79,1l.13.38h.4Zm0,3.34.12.38-.33-.23-.32.23.12-.38L9.27,4.7h.4l.12-.38.13.38h.4Zm0,3.35.12.38-.33-.24-.32.24.12-.38L9.27,8h.4l.12-.38L9.92,8h.4Zm0,3.42.12.38-.33-.24-.32.24.12-.38-.32-.24h.4l.12-.38.13.38h.4Zm.12,3.65-.33-.24-.32.24L9.59,15l-.32-.23h.4l.12-.38.13.38h.4L10,15ZM8.53,3.14l.12.38-.33-.24L8,3.52l.13-.38L7.8,2.9h.4l.12-.38.13.38h.4Zm0,3.45L8.65,7l-.33-.23L8,7l.13-.38L7.8,6.36h.4L8.32,6l.13.39h.4Zm0,3.38.13.39-.32-.24L8,10.36,8.09,10l-.32-.23h.4l.13-.38.12.38h.4Zm.1,3.73-.32-.24-.33.24.13-.38-.33-.24h.4l.13-.38.12.38h.4l-.32.24ZM7,4.93l.12.38L6.8,5.08l-.33.23.13-.38L6.27,4.7h.4l.13-.38.12.38h.4ZM7,8.28l.12.38L6.8,8.42l-.33.24.13-.38L6.27,8h.4l.13-.38L6.92,8h.4ZM7,11.7l.12.38-.32-.24-.33.24.13-.38-.33-.24h.4l.13-.38.12.38h.4Zm.12,3.65-.32-.24-.33.24L6.6,15l-.33-.23h.4l.13-.38.12.38h.4L7,15ZM5.53,6.56l.12.38L5.33,6.7,5,6.94l.13-.38L4.8,6.32h.4l.13-.38.12.38h.4Zm0,3.38.12.38-.32-.23L5,10.32l.13-.38-.33-.23h.4l.13-.39.12.39h.4Zm.09,3.73-.32-.24-.33.24.13-.38-.33-.24h.4l.13-.38.12.38h.4l-.32.24ZM12.67,1.35,12.79,1l.13.38h.4L13,1.59l.13.38-.33-.24L12.47,2l.12-.38-.32-.24Zm3,10.11.12-.38.12.38h.41L16,11.7l.13.38-.33-.24-.32.24.12-.38-.32-.24Zm0-3.42.12-.38.12.38h.41L16,8.28l.13.38-.33-.24-.32.24.12-.38L15.27,8Zm0-3.34.12-.38.12.38h.41L16,4.93l.13.38-.33-.23-.32.23.12-.38-.32-.23Zm0-3.35L15.79,1l.12.38h.41L16,1.59l.13.38-.33-.24L15.47,2l.12-.38-.32-.24ZM4,8.28l.12.38L3.8,8.42l-.33.24.13-.38L3.27,8h.4l.13-.38L3.92,8h.4ZM4,11.7l.12.38-.32-.24-.33.24.13-.38-.33-.24h.4l.13-.38.12.38h.4Zm.12,3.65-.32-.24-.33.24L3.6,15l-.33-.23h.4l.13-.38.12.38h.4L4,15ZM2.5,9.88l.12.38L2.3,10,2,10.26l.13-.38-.33-.23h.4l.13-.38.12.38h.4Zm.09,3.73-.32-.24-.33.24.13-.38L1.74,13h.4l.13-.38.12.38h.4l-.32.24ZM1.12,15.35.8,15.11l-.33.24L.6,15l-.33-.23H.68l.12-.38.12.38h.4L1,15ZM17.25.17,15.87,0l-2.7.1A15,15,0,0,0,5.6,3.32l.05.17-.14-.1A13.42,13.42,0,0,0,4.1,4.7h.22L4,4.93l.12.38L3.8,5.08l-.13.09c-.3.35-.59.71-.86,1.09h0l-.09.07-.2.28.09.27-.18-.13a14.87,14.87,0,0,0-2,4.65s0,0,0,.06H.68l.12-.38.12.38h.4L1,11.7l.12.38L.8,11.84l-.33.24L.6,11.7l-.19-.14a15,15,0,0,0-.36,4.65h17.2Z"/></g></g></svg>