<svg xmlns="http://www.w3.org/2000/svg" viewBox="0 0 53.86 53.85"><defs><style>.cls-1{fill:#2c2f33;}</style></defs><title>mundo</title><g id="Capa_2" data-name="Capa 2"><g id="Capa_1-2" data-name="Capa 1"><path class="cls-1" d="M9.23,9.62a24.77,24.77,0,0,1,35-.41l-2.78,0a1.09,1.09,0,0,0,0,2.18h0l5.41-.07A1.09,1.09,0,0,0,48,10.25l-.07-5.4a1.09,1.09,0,1,0-2.17,0l0,2.78A26.93,26.93,0,0,0,1.58,36a1.13,1.13,0,0,0,1,.73A.92.92,0,0,0,3,36.69a1.09,1.09,0,0,0,.66-1.39A24.62,24.62,0,0,1,9.23,9.62Z"/><path class="cls-1" d="M8.12,46.19a26.8,26.8,0,0,0,18.81,7.66h.31A26.94,26.94,0,0,0,53.29,32.43a27,27,0,0,0-1-14.64,1.09,1.09,0,1,0-2.06.74A24.75,24.75,0,0,1,9.64,44.62l2.78,0a1.09,1.09,0,1,0,0-2.17h0L7,42.47a1.08,1.08,0,0,0-.77.33,1.12,1.12,0,0,0-.31.77L6,49a1.1,1.1,0,0,0,1.09,1.08h0A1.1,1.1,0,0,0,8.16,49Z"/><path class="cls-1" d="M42,20.67a16.25,16.25,0,0,0-14-10l-.36,0h-.64a16.3,16.3,0,0,0-15,10.05A16.3,16.3,0,0,0,27,43.2h.93A16.29,16.29,0,0,0,42,20.68ZM21.26,14a17.19,17.19,0,0,0-2.82,6H14.63A14,14,0,0,1,21.26,14Zm-7.62,8.2H18a28.36,28.36,0,0,0-.39,4.72A26.76,26.76,0,0,0,18,31.65H13.64A13.94,13.94,0,0,1,13.64,22.2Zm1,11.61h3.88a17.59,17.59,0,0,0,3,6.14A14,14,0,0,1,14.63,33.81Zm11.61,7.06C24,40.2,22,37.47,20.79,33.81h5.45v7.06Zm0-9.23h-6a24.16,24.16,0,0,1-.47-4.73,26.23,26.23,0,0,1,.42-4.72h6.06Zm0-11.62H20.69c1.11-3.78,3.14-6.45,5.55-7.06Zm13,0h-3a17.67,17.67,0,0,0-2.37-5.41A14.08,14.08,0,0,1,39.24,20ZM28.42,12.94c2.42.63,4.43,3.3,5.55,7.07H28.42Zm0,9.26h6.07a26.17,26.17,0,0,1,.41,4.72,23.42,23.42,0,0,1-.47,4.73h-6Zm0,18.67V33.81h5.45C32.72,37.47,30.7,40.2,28.42,40.87Zm5.21-1.53a18.1,18.1,0,0,0,2.54-5.53h3.07A13.83,13.83,0,0,1,33.63,39.34Zm6.6-7.7H36.66a25.77,25.77,0,0,0,.42-4.73,28.38,28.38,0,0,0-.38-4.72h3.53A13.94,13.94,0,0,1,40.23,31.64Z"/></g></g></svg>