<svg xmlns="http://www.w3.org/2000/svg" viewBox="0 0 73.22 48.25"><defs><style>.cls-1{fill:#2c2f33;}</style></defs><title>vinculacion</title><g id="Capa_2" data-name="Capa 2"><g id="Capa_1-2" data-name="Capa 1"><path class="cls-1" d="M.15,25a1.41,1.41,0,0,0,.85.74L10.36,29a1.28,1.28,0,0,0,.47.07,1.49,1.49,0,0,0,1.41-1L19.58,6.61l.37.14a7.61,7.61,0,0,0,5.83-.33L26.69,6a4.62,4.62,0,0,1,3.5-.21l17.07,5.89a3.29,3.29,0,0,1-1.12,1.84c-.69.48-1.75.48-3.14,0l-7.65-2.62a1.47,1.47,0,0,0-1.18.11,1.54,1.54,0,0,0-.74.92A10.15,10.15,0,0,1,29,17.67c-2.09,1.12-4.7,1.15-7.77.11a1.48,1.48,0,1,0-.95,2.81,15.81,15.81,0,0,0,5.08.92,10.47,10.47,0,0,0,5.06-1.24,12.42,12.42,0,0,0,5.31-6.11L42,16.31c2.33.8,4.27.68,5.78-.37,2.38-1.64,2.54-4.86,2.56-5.22a1.53,1.53,0,0,0-1-1.45L31.13,3a7.61,7.61,0,0,0-5.77.36l-.91.45A4.63,4.63,0,0,1,20.91,4L19.4,3.46a1,1,0,0,0-.29-.14L9.8.08A1.48,1.48,0,0,0,7.92,1L.07,23.88A1.51,1.51,0,0,0,.15,25ZM10.25,3.35,16.8,5.6,9.92,25.67,3.38,23.43Z"/><path class="cls-1" d="M15.56,38.55A4.32,4.32,0,0,0,19.31,41a4.46,4.46,0,0,0,.43,1.89,4.25,4.25,0,0,0,2.5,2.2,4.29,4.29,0,0,0,1.4.24,4.21,4.21,0,0,0,1.9-.45l.78-.39a4.53,4.53,0,0,0,.4,1.35A4.26,4.26,0,0,0,29.22,48a4,4,0,0,0,1.4.24,4.34,4.34,0,0,0,1.9-.44l17-8.33a43.64,43.64,0,0,0,10.4-7.1l3.79-3.48,8.69-4.25a1.47,1.47,0,0,0,.67-2L62.49,1a1.44,1.44,0,0,0-.85-.74A1.42,1.42,0,0,0,60.5.29L51.62,4.64a1.47,1.47,0,0,0-.67,2L61.08,27.33,58,30.21a41.69,41.69,0,0,1-9.7,6.63l-17,8.32a1.39,1.39,0,0,1-1.85-.64,1.34,1.34,0,0,1-.06-1.06,1.41,1.41,0,0,1,.7-.8L39.55,38a1.48,1.48,0,0,0-1.3-2.65L28.74,40h0l-4.48,2.2a1.41,1.41,0,0,1-1.07.06,1.44,1.44,0,0,1-.79-.71,1.39,1.39,0,0,1-.06-1.06,1.41,1.41,0,0,1,.71-.79l13.63-6.67a1.47,1.47,0,0,0-1.3-2.64L20.06,37.9a1.42,1.42,0,0,1-1.86-.63,1.38,1.38,0,0,1,.65-1.85l6-3h0l7.85-3.85A1.47,1.47,0,1,0,31.43,26L19.22,32A1.38,1.38,0,0,1,18,29.47l6.49-3.17a1.48,1.48,0,0,0-1.3-2.65l-6.49,3.17a4.34,4.34,0,0,0-2,5.82,4.17,4.17,0,0,0,1.22,1.5A4.25,4.25,0,0,0,15.56,38.55ZM54.25,6.64l6.22-3L69.8,22.65,63.58,25.7Z"/></g></g></svg>