<?xml version="1.0" encoding="UTF-8" standalone="no"?>
<!-- Created for MapSVG plugin: http://mapsvg.com -->

<svg
   xmlns:mapsvg="http://mapsvg.com"
   xmlns:dc="http://purl.org/dc/elements/1.1/"
   xmlns:cc="http://creativecommons.org/ns#"
   xmlns:rdf="http://www.w3.org/1999/02/22-rdf-syntax-ns#"
   xmlns:svg="http://www.w3.org/2000/svg"
   xmlns="http://www.w3.org/2000/svg"
   xmlns:sodipodi="http://sodipodi.sourceforge.net/DTD/sodipodi-0.dtd"
   xmlns:inkscape="http://www.inkscape.org/namespaces/inkscape"
   mapsvg:geoViewBox="-169.110266 83.600842 190.486279 -58.508473"
   width="600"
   height="418.98947"
   id="svg2"
   version="1.1"
   inkscape:version="0.91 r13725"
   sodipodi:docname="caribe.svg">
  <metadata
     id="metadata264">
    <rdf:RDF>
      <cc:Work
         rdf:about="">
        <dc:format>image/svg+xml</dc:format>
        <dc:type
           rdf:resource="http://purl.org/dc/dcmitype/StillImage" />
        <dc:title></dc:title>
      </cc:Work>
    </rdf:RDF>
  </metadata>
  <defs
     id="defs262" />
  <sodipodi:namedview
     pagecolor="#ffffff"
     bordercolor="#666666"
     borderopacity="1"
     objecttolerance="10"
     gridtolerance="10"
     guidetolerance="10"
     inkscape:pageopacity="0"
     inkscape:pageshadow="2"
     inkscape:window-width="1366"
     inkscape:window-height="705"
     id="namedview260"
     showgrid="false"
     fit-margin-top="0"
     fit-margin-left="0"
     fit-margin-right="0"
     fit-margin-bottom="0"
     inkscape:zoom="0.48883219"
     inkscape:cx="209.25564"
     inkscape:cy="233.94237"
     inkscape:window-x="-8"
     inkscape:window-y="-8"
     inkscape:window-maximized="1"
     inkscape:current-layer="svg2" />
  <path
     d="m 546.07131,250.8139 -0.75568,0.97468 -2.628,-0.39491 -0.52896,-1.21836 -0.11756,-0.85706 1.64566,-1.73931 1.85555,0.73943 0.71369,0.82344 0.52895,0.16806 -0.008,0.69741 -0.20152,0.51254 -0.50376,0.2941 z m -0.73048,-13.2087 -0.35264,0.64701 -1.92274,-1.16796 -0.58772,-2.19305 0.0588,-0.46213 0.32746,-0.24366 0.76404,0.42012 1.01594,0.15961 0.64651,0.71423 0.0505,2.12582 z"
     title="Antigua and Barbuda"
     id="AG"
     inkscape:connector-curvature="0" />
  <path
     d="m 515.79463,221.67412 -3.7447,1.24356 0.15117,-0.7142 3.00583,-1.70571 1.09151,0.11755 z"
     title="Anguilla"
     id="AI"
     inkscape:connector-curvature="0" />
  <path
     d="m 353.24437,361.95347 0.0839,0.69739 -1.09149,-0.37813 -1.46094,-1.48722 -1.46094,-1.11754 0.36103,-1.20153 0.36945,-0.40333 1.46092,1.11752 1.44415,2.09222 z"
     title="Aruba"
     id="AW"
     inkscape:connector-curvature="0" />
  <path
     d="m 598.44674,346.8122 -0.6717,0.47893 -2.10744,-0.95788 -0.73887,-1.15954 -0.0924,-3.68028 1.30141,-0.35291 2.44328,2.91565 1.41897,1.05872 z"
     title="Barbados"
     id="BB"
     inkscape:connector-curvature="0" />
  <path
     d="m 519.78282,230.19423 -0.36104,0.0252 -0.27707,-0.20165 -0.25188,-0.36972 -0.14273,-0.3697 0.0336,-0.21846 0.20992,0.10084 1.5449,0.23528 -0.16789,0.27728 -0.26868,0.29408 z"
     title="Saint Barthelemy"
     id="BL"
     inkscape:connector-curvature="0" />
  <path
     d="m 562.50488,-248.31518 -2.50537,1.11433 -0.69593,-0.0895 -0.4971,-0.37807 2.55508,-1.11433 2.13752,-2.60674 0.7357,0.16914 z"
     title="Bermuda"
     id="BM"
     inkscape:connector-curvature="0" />
  <path
     d="m 393.15147,369.32241 -1.14188,2.69721 -0.65491,-1.20156 -0.11756,-2.14262 -0.47017,-0.84025 -0.97398,-0.51255 -0.52895,-0.7058 0.042,-1.05871 3.52641,1.69728 0.31906,2.067 z m 124.13769,-129.76783 -0.57094,0.51256 -0.50378,-0.0421 -0.33585,-0.49574 -0.0588,-0.82343 0.47859,0.22686 0.17632,0.126 0.15117,0.16806 0.66331,0.32771 z m -6.95205,-3.13413 -0.2099,0.0924 -0.30227,-0.22688 0.0503,-0.40332 0.25189,-0.16806 0.19312,0.11755 0.15117,0.3193 -0.13428,0.26888 z"
     title="Bonaire,  Saint Eustachius and Saba"
     id="BQ"
     inkscape:connector-curvature="0" />
  <path
     d="m 180.61029,27.13158 -0.49538,0.22687 -2.04866,-2.61317 -1.64565,-0.75622 2.56922,-1.84854 1.11669,-1.58807 -0.0252,-3.47021 0.62971,-1.90737 -0.2099,-1.64691 0.56253,-1.68048 -0.76403,-1.89055 -2.14943,-1.50406 -4.25687,-5.97415 -6.72535,-1.45364 -3.48441,-0.0588 L 165.59788,0 l 1.7632,0.11755 2.72037,0.57136 3.25771,0.27729 1.9899,1.75611 1.89754,2.33589 1.72122,0.94108 0.70528,0.59657 -0.0757,0.68058 0.28548,0.63862 2.24177,1.09232 2.25859,1.75611 0.66329,5.15071 -3.03942,2.43672 -0.55414,7.4446 -0.82284,1.336 z m -29.86525,-21.58596 2.85471,0.82346 1.53649,-0.11755 0.91519,-0.52937 4.22329,0.21846 3.40886,-0.78983 0.51217,1.3948 -0.084,0.73102 -7.25433,0.68061 -6.64978,2.0502 -3.64395,1.3864 -1.7128,0.15962 -1.30983,-0.73102 -4.39119,-4.21805 1.17546,0.42013 3.24094,2.38628 2.01508,-0.4369 1.87235,-1.57968 0.28547,-1.19314 -0.27707,-0.56296 0.848,-1.89058 2.43491,1.79814 z m 43.45028,32.43356 3.87905,2.92407 3.30809,1.10913 3.57679,3.66347 1.54488,1.30237 0.27709,1.18477 -0.60453,5.41119 -0.80604,3.25175 0.11756,2.84845 -0.83963,-0.84866 -0.84802,-1.86535 -1.39376,-1.06712 -0.47018,-0.56296 2.50207,-0.126 0.21829,-2.94086 1.22584,-2.31908 -0.18472,-2.41992 -2.92187,-2.66359 -1.9983,-2.3443 -3.08139,-0.7562 -2.84631,-2.3359 -1.69603,-0.2857 -2.07386,0.41174 0.74726,-1.3948 0.52057,-1.84855 0.37782,-0.3529 1.46933,2.02498 z m -25.80149,20.19957 -0.0503,3.12571 0.26028,2.33588 -0.23508,0.83184 -2.55245,1.56287 -0.65489,0.87386 -2.40133,0.88226 -1.45253,1.22677 -0.73048,-1.99138 -1.41055,-1.22679 -0.2351,-2.0922 -1.07471,0.7058 -1.56169,-0.42851 -2.56924,-1.57968 -1.62047,-2.15103 2.27538,-0.36972 0.47018,1.336 1.79679,-1.63847 -0.41142,-0.86545 -0.32745,-0.10928 -0.58774,-1.60487 2.70359,-4.21805 0.58773,-2.7224 -1.22585,-4.37768 1.15029,-0.28569 3.04781,1.53766 1.36858,1.51242 0.0421,2.07543 1.28462,1.59647 1.85555,3.83992 2.25859,2.21828 z m 9.34496,-7.92355 -2.66159,0.53776 -1.90594,-0.52934 -0.48697,-0.42855 0.81443,-0.71421 1.78839,-0.59657 2.87989,-0.0588 1.25944,0.7058 0.15117,0.31089 -1.83877,0.77304 z m 48.05141,20.997784 0.15945,1.302388 -1.5785,-0.260467 -2.33414,0.51254 -0.83961,0.01689 0.52056,-0.899062 1.62046,-1.209963 0.0839,-1.15113 -2.00668,-1.6637 -2.32575,-4.14241 -1.09151,-0.98309 -0.52056,-1.56288 -1.95631,-1.67208 0.40301,-0.89065 0.40302,-0.21007 1.3182,0.42853 2.98905,5.96575 0.19311,0.57136 4.96216,5.848127 z m -55.36448,-1.277174 0.0421,0.58818 -2.33414,1.621667 1.69602,1.159546 1.59528,-2.520733 1.26782,2.050199 0.69688,3.831513 -0.11756,0.672206 0.11756,0.57137 0.24349,0.731018 0.0588,1.058727 -1.29301,3.335779 -4.65148,-0.344515 -0.10911,-2.814843 -0.72207,-0.546153 -1.08312,-4.024773 -1.45252,-1.293994 -2.0235,-3.310574 1.17546,-0.85704 1.5701,0.28568 0.80603,-0.40332 2.17461,-0.3193 1.31822,-0.45373 1.02434,0.98309 z m 76.06948,4.66337 -1.87236,2.781231 -0.99913,-0.235283 0.56253,-3.503822 1.29302,-0.554564 0.51217,0.03361 0.50377,1.478826 z m -29.10121,15.830266 -0.98234,0.151169 -1.7548,-0.680584 -4.12254,-3.108922 -1.91433,-0.268879 0.62971,-1.756117 1.46094,0.613377 3.32488,2.680395 1.25105,1.344412 2.10743,1.025081 z m 19.4204,14.174984 -0.15117,0.65538 -2.97224,-5.08348 -3.7447,-1.235164 -2.14943,-1.226753 0.445,-0.697424 1.49452,-0.302474 0.25188,-1.613291 -0.6381,-1.747722 -1.97311,-3.529038 -1.1083,-2.394694 -0.51217,-0.554564 -0.15117,-2.008206 2.34254,3.117317 0.97395,2.764426 1.57009,2.705612 1.04952,4.654973 2.99744,1.579645 2.15783,2.251867 0.11755,2.66359 z m 18.44643,4.34409 0.53735,0.45371 -1.50291,1.02511 -3.38366,-1.26036 -0.76406,0.0924 -0.6717,-1.3444 -0.26028,-0.9915 0.16789,-0.91587 2.0151,0.70582 1.0831,1.31918 2.77913,0.91588 z m -3.51799,12.93139 -1.65405,0.76463 0.36943,-1.31078 3.16535,-2.22667 1.75482,-1.95775 0.99913,-0.69743 0.35264,-0.53776 1.39377,-0.7226 0.69688,-1.26039 -0.19311,-1.03349 -1.45254,-1.7057 0.0169,-1.20155 0.50377,-0.84866 2.45168,-0.39491 -0.6465,1.27718 0.96556,3.61306 -3.25772,4.49534 -2.78754,1.39481 -2.67838,2.35267 z m 27.47234,-5.4532 1.46092,0.3613 0.79765,-0.0252 2.69518,0.75622 1.60366,1.05032 0.36105,0.42854 -0.86481,0.93268 -2.47688,-1.76453 -2.16622,-0.22687 -3.03942,0.0421 -1.21744,-0.33611 0.81442,-1.89895 2.03189,0.6806 z m 2.94706,23.31687 -3.14019,1.23517 -0.31904,-1.45365 1.60366,-1.16792 1.85557,1.3864 z m -2.61962,7.91513 -0.74725,1.84015 -2.49368,3.51223 -5.56668,0.88226 -6.12922,0.16806 -0.47018,-0.95789 -0.13428,-0.84023 0.44499,-1.3192 -0.042,-0.52097 -0.25187,-0.52934 2.25018,-0.56296 1.46092,-1.6301 2.32574,-0.27727 2.8967,1.15113 1.56169,0.0421 2.30896,-1.26036 1.85555,-2.7308 1.0999,0.35289 -0.36942,2.68038 z"
     title="Bahamas"
     id="BS"
     inkscape:connector-curvature="0" />
  <path
     d="m 71.938381,97.804814 6.171211,1.184746 4.987326,-0.336103 2.384526,-0.697389 -0.218309,0.714195 2.191417,1.756137 0.797634,0.11755 3.224133,-0.890663 8.42139,-0.336103 0.864811,0.495769 1.48612,1.714097 2.14943,1.05871 2.22497,0.80663 2.32575,0.21007 2.31735,-0.36132 2.17463,0.17647 2.72036,1.66368 0.85641,0.19326 2.4349,-0.45373 -0.71368,1.52924 4.09734,2.13423 3.00584,4.20124 2.183,1.72251 2.30896,1.54605 1.94791,1.05031 2.183,0.50417 6.62461,-0.20166 1.57008,0.126 1.40216,0.59657 1.33501,0.23529 0.77245,-0.22687 12.79579,6.52031 4.07215,3.47863 2.48528,1.80653 5.38195,2.60476 2.15783,0.57139 1.13348,-0.3445 -0.21829,-0.57139 -1.5785,-1.44523 -0.23508,-0.52936 2.02348,0.44535 3.65233,2.94086 1.00755,1.08393 1.82198,1.00829 1.83876,0.72261 -0.8732,1.15954 -1.49452,0.10084 -2.8631,-0.47895 2.27536,1.89057 0.38622,1.36958 1.05793,0.11755 1.57848,-1.50406 0.99914,-1.26877 4.02178,3.27698 2.16622,1.49563 -0.55414,0.87386 -0.17632,0.86545 2.41808,-0.80663 0.9152,0.0924 0.88159,0.46214 0.96556,1.4032 2.25858,0.31089 2.27537,-0.0336 4.6179,1.15954 4.37443,2.3611 4.11412,0.47893 4.14772,0.0839 2.09904,1.24358 0.89001,1.68048 -1.00755,1.18474 -0.57095,1.23519 1.54492,1.52083 -3.36689,0.64699 -0.47857,0.91588 0.17632,0.98309 0.6717,0.53776 1.92272,-0.47055 2.78755,0.42013 4.39119,0.36972 2.93867,-0.30249 5.97809,1.03351 1.81357,0.55454 3.5432,1.94099 1.63725,1.27717 3.51801,3.445 3.03103,1.35279 2.628,0.32771 0.91519,-0.22685 0.83121,0.37811 0.73048,0.47893 0.72207,1.50404 -0.40301,1.57966 -1.50293,1.28558 -0.83121,0.93268 -3.75311,0.10911 -5.2476,0.42854 -5.07131,1.39482 -2.47688,1.10911 -1.13349,0.73102 -2.66999,0.6806 -0.17632,-0.57977 0.0505,-0.73102 -0.69689,-1.3528 -0.60452,1.21837 -0.99075,0.89065 -1.67083,0.75622 -6.16282,0.0503 -2.47688,-1.0251 -2.54404,-0.69741 -9.26939,-0.73102 -2.225,0.0588 -6.18798,0.76463 -6.22158,0.41172 -2.60282,0.47054 -2.57763,0.70582 -5.01253,-0.0252 -5.9193,0.80664 -5.93612,0.15117 3.80348,-5.65488 8.01837,-5.45319 1.5113,-1.17636 1.07471,-1.50406 0.25188,-1.13432 -0.35263,-0.96629 -1.91433,-1.71411 -0.38622,-1.26876 -0.57095,-0.82344 -2.77914,-0.71421 -2.81273,-0.42855 -2.96385,-0.008 -6.22158,-0.58816 -3.30809,-0.0421 -2.80434,-1.16794 -4.65149,-4.15083 -2.17461,-1.16794 -1.1167,-0.93267 -0.8732,-1.07552 -1.0915,-6.117 -0.92358,-2.94087 -1.41056,-2.56277 -2.14942,-1.94096 -2.25018,-0.6638 -8.63129,1.66369 -2.00669,-0.25207 -1.95632,-0.56296 -13.03087,-3.97437 -5.37356,-2.18466 -2.19142,-1.08391 -1.87236,-1.54605 -1.93951,-2.53755 -2.17461,-2.26866 0.008,0.91585 -0.33585,0.59659 -10.906654,0.26888 -1.73801,-0.52096 -1.116695,-0.62179 -0.78924,-0.91586 -0.587736,-1.84013 -1.041127,-1.54607 -0.33585,1.64689 -0.537353,1.52085 -1.460939,0.84866 -1.670836,0.14272 -2.023492,-2.01658 -8.841186,-0.42013 -0.780845,-0.3445 -2.905072,-1.95777 -2.476882,-2.45353 2.460076,-0.86546 5.088095,-1.13433 1.099905,-0.75622 0.638104,-0.97468 -0.461784,-1.44525 -1.015944,-1.0503 -1.041127,-0.61337 -1.150273,-0.38653 -1.519718,-0.16805 -19.672284,-0.26049 -1.133484,0.78985 -1.763193,1.60486 -3.492809,2.05861 -2.300563,2.13422 -0.864808,1.10072 -1.074705,0.78983 -2.418104,1.3192 -2.065465,2.0334 -2.502066,0.90746 -1.368582,-0.55456 -1.351793,0.008 -0.982348,0.50416 -1.032733,0.22685 -5.046104,0.24368 -0.755662,0.52095 -0.722067,1.45363 -0.822834,2.83163 -0.772451,0.93268 -2.52725,0.35291 -2.409709,0.77302 -4.903364,2.68879 -1.2678303,0.39492 0.2770709,-1.97457 -0.2434927,-1.92417 -1.3853712,-0.0672 -1.5784796,0.31928 -1.3181979,0.53777 -2.4348928,1.43682 -1.2337754,0.3613 -1.15029,-0.731 0.2350981,-0.9411 8.1191186,-3.46182 0.9067805,-0.26047 1.4441498,0.26047 1.410555,-0.11756 1.099906,-0.97468 -1.334987,-4.58776 0.512152,-3.12571 1.880751,-2.41991 3.761502,-3.6719 1.813578,-1.20995 18.547178,-7.67147 1.89754,-0.39492 12.056923,-1.54603 1.838761,-0.53776 5.591886,-2.277084 5.868923,-0.93269 6.288752,0.731018 z m 58.622209,12.696146 0.0421,0.67219 -4.12252,-1.86535 -1.77161,-1.94098 -0.71367,-0.44532 1.15867,-0.0421 4.6431,3.18454 0.76405,0.43692 z m 16.95191,2.84002 3.23254,0.53776 1.12509,-0.32769 1.07471,-0.0924 1.13348,0.22687 1.58687,2.10903 -1.39376,0.26047 -1.10828,0 -0.81444,-0.37811 -2.90508,-0.0924 -1.91434,-0.6134 -1.04952,-0.52936 -0.51217,-0.63856 1.5449,-0.46216 z m 14.20635,6.77241 -0.47858,0.42012 -1.27622,-0.94107 -1.84716,-0.41172 -1.08311,-1.47043 -1.04113,-0.56298 -0.0839,-0.53776 1.71283,-0.3529 1.19226,0.15961 1.3266,1.11754 0.76405,2.067 0.81443,0.51256 z m 3.48443,3.99958 -0.77245,0.0672 -2.34254,-1.05032 -0.69688,-0.88226 0.82282,-1.18474 0.17632,-1.28557 0.31906,-0.0839 0.37782,1.56286 1.78839,0.66379 0.10912,0.34452 1.09989,1.31917 -0.8816,0.52937 z m 4.96216,4.43651 -0.96558,0.77301 -1.05791,-1.11753 -0.6717,-0.11755 -0.93197,-0.44534 -1.80518,-1.24357 -0.4366,-1.28557 1.50291,-0.10084 1.89754,0.22688 3.31649,0.73102 -0.29386,1.45362 -0.55414,1.12594 z m -115.296509,9.59563 -2.191417,1.33598 -4.676677,1.88215 -2.510461,0.0672 -2.535644,-0.7058 -1.746404,-1.57126 -0.999154,-1.55447 0.08394,-0.74782 1.586891,1.24358 1.368565,0.61337 1.12509,-0.41172 0.797651,-0.67219 -2.569239,-5.0247 0.117557,-1.0587 2.040281,-2.76442 5.54988,0.84027 0.965559,0.48733 0.772451,1.74771 1.234235,1.36961 1.452561,3.66347 0.134279,1.26038 z"
     title="Cuba"
     id="CU"
     inkscape:connector-curvature="0" />
  <path
     d="m 380.2969,371.35582 -1.22584,0.3445 -4.52555,-2.31068 -3.73631,-3.7559 -0.11756,-1.95778 0.95716,0.16806 0.97396,0.7478 1.50293,2.65518 4.3744,1.74772 z"
     title="Curaçao"
     id="CW"
     inkscape:connector-curvature="0" />
  <path
     d="m 556.30626,294.43957 -2.20821,0.52935 -0.94877,-4.19285 -1.54488,-3.05008 0.26868,-1.89897 0.27707,-0.72263 3.24931,1.16796 1.01595,1.42001 0.61292,3.7307 z"
     title="Dominica"
     id="DM"
     inkscape:connector-curvature="0" />
  <path
     d="m 309.20635,226.18623 0.10083,-4.0668 0.62973,-1.65528 -0.57934,-1.73931 -2.61121,-1.84855 -1.59529,-2.38629 -1.41895,-2.10902 0.31906,-0.30249 2.8379,-0.0924 0.99915,-0.78144 1.90594,-2.15943 0.37782,-1.73931 -0.15117,-1.31919 -1.24264,-1.57127 -0.48697,-1.66369 1.52809,-1.44523 2.00669,-2.1174 0.27709,-0.81505 -0.0421,-0.80664 -2.34254,-2.22665 -0.15944,-0.9663 1.09149,-2.41991 -0.10911,-1.60487 -1.0831,-5.01629 -0.51217,-0.74781 1.04113,-0.42011 0.68849,-1.49567 0.90678,-1.33598 1.20905,-0.71421 1.37698,-0.45372 2.72875,0.0421 3.77829,1.15955 1.07472,-0.0169 3.62714,-1.05871 3.00586,-0.58816 2.83791,0.67219 1.15028,0.90747 2.33414,1.43682 1.17545,0.42853 3.69433,-0.0252 1.01595,0.14272 3.09819,2.36951 2.61122,0.94946 1.5197,0.0421 2.72037,-0.91588 1.35178,0.0252 1.5449,2.0418 0.30227,2.89887 1.29301,2.63836 1.98151,1.68893 9.76475,-0.70582 2.17463,1.3864 -0.73887,1.14274 -1.38537,0.61338 -4.6431,-0.26888 -2.02348,0.13445 -0.41142,1.14272 -0.008,1.05871 2.71196,0.25207 2.6616,0.52937 2.72037,0.85705 2.75394,0.57978 3.10659,0.37809 3.06462,0.6134 5.10489,2.07541 5.63384,4.70539 1.51132,1.07552 0.99914,1.47043 -0.47858,1.82332 -2.01508,2.97448 -1.14189,0.94948 -1.66244,0.58817 -1.14188,1.20997 -1.09991,2.07541 -0.6717,0.17644 -0.78924,-0.0839 -1.35179,-1.17635 -0.96556,-1.80654 -2.72875,-1.69729 -3.23255,0.21847 -4.76903,-0.9999 -2.87989,0.47893 -2.8883,0.11755 -2.94706,-0.51255 -2.97225,-0.17646 -2.96385,0.6386 -2.87149,1.08391 -1.05793,0.69742 -1.84716,1.68889 -0.98235,0.63018 -6.99403,0.84865 -2.00668,-1.24356 -1.87236,-1.6973 -2.68678,-0.22686 -3.90423,1.31077 -2.43491,0.47896 -0.99074,0.55456 -0.29388,0.64699 -0.008,2.36948 -0.54575,1.43683 -3.80347,5.428 -2.14104,3.83153 -0.88159,1.17635 -1.02434,0.26049 -1.87234,-2.20145 -1.19226,-0.78985 -1.47773,-0.40331 -0.62971,-1.16796 0.0252,-1.66369 -0.38624,-1.61326 -0.91517,-1.26877 z"
     title="Dominican Republic"
     id="DO"
     inkscape:connector-curvature="0" />
  <path
     d="m 546.0881,372.49015 -1.5701,0.0924 0.62131,-0.88226 0.13428,-1.51245 0.82284,-1.84013 1.28462,-1.23516 1.25941,0.3277 -0.47018,4.05 z"
     title="Grenada"
     id="GD"
     inkscape:connector-curvature="0" />
  <path
     d="m 555.23154,270.54292 -2.77074,0.26888 -1.82198,-0.21007 -0.41979,-1.74772 0.93196,-1.47882 -0.67168,-1.79813 0.42819,-1.06712 0.93198,-0.7058 1.52811,0.94107 0.2435,1.34439 0.95716,1.22677 4.30725,2.62157 -3.64396,0.60498 z m -6.17959,5.4532 -1.90594,1.09234 -0.93198,-0.33611 -1.15868,-2.10063 -0.81442,-5.83132 0.62971,-0.96627 0.45339,-0.36132 2.51047,0.71421 1.04952,0.82346 1.04953,0.52094 -0.52896,1.0671 0.26028,4.3777 -0.61292,0.9999 z m 8.46336,2.85685 -1.3098,0.0924 -0.57934,-0.21007 -0.17632,-1.46203 1.01594,-1.0083 0.59613,-0.24366 0.8816,1.13433 0.2099,0.94107 -0.63811,0.75624 z"
     title="Guadeloupe"
     id="GP"
     inkscape:connector-curvature="0" />
  <path
     d="m 288.09833,176.62843 0.95716,0.57978 -0.36103,0.70582 -2.37612,-0.43694 -2.46009,-0.79824 -0.80603,0.19326 -0.49538,-0.10083 -1.43574,-0.76464 1.25942,-0.58817 1.30141,-0.19326 1.42736,0.0419 2.98904,1.3612 z m 20.84774,7.95716 0.52056,0.73941 1.08312,5.0163 0.10911,1.60486 -1.09151,2.41991 0.15944,0.95787 2.34254,2.23506 0.0419,0.80664 -0.27707,0.81505 -1.9983,2.11742 -1.5365,1.44523 0.48698,1.66369 1.24263,1.57966 0.15945,1.3192 -0.37782,1.73931 -1.90594,2.15943 -0.99915,0.77304 -2.83792,0.0924 -0.31904,0.3109 1.41055,2.10903 1.59527,2.38628 2.61121,1.84856 0.57935,1.73931 -0.62971,1.64688 -0.10912,4.0668 -1.99829,-1.97456 -2.19141,-1.6469 -1.3182,-0.6386 -1.36858,-0.41172 -10.45326,0.21007 -1.17546,0.2857 -0.9068,0.52933 -0.97395,0.26048 -2.8715,0.49575 -2.8547,0.10929 -6.67497,-1.32758 -2.64481,-0.68902 -2.66159,-0.43693 -3.05621,0.1429 -3.03942,0.40332 -2.43491,0.95788 -1.82197,1.68891 -0.34424,1.57125 -1.07471,0.40331 -2.46008,-2.49553 -2.26698,-1.77292 -2.57762,-1.33601 -5.2812,-1.90735 -0.96558,-1.15955 -0.4282,-1.4032 2.13263,-4.31887 2.4265,-0.78983 1.33501,-0.15117 2.99743,0.52936 2.93027,0.98309 2.66999,0.63858 4.13932,0.25209 2.25018,1.05871 15.894,1.64689 3.01423,0.52093 1.17546,-0.17644 1.02433,-0.64699 0.85642,-1.16795 0.98235,-0.87386 4.71027,-0.19327 0.99074,-0.39491 0.68849,-1.21836 -0.0169,-1.26876 -2.77074,-1.6973 -4.33244,-3.73071 -3.81187,-4.39449 1.64566,-1.48724 -0.62971,-2.71399 0.62131,-2.51235 0.9068,-2.46192 -3.77829,-2.10901 -4.46678,-2.10904 -6.18798,-0.66379 -1.90596,-0.52935 -0.99074,-1.57968 0.88999,-2.1174 2.00671,-1.17635 2.30056,-0.72261 2.35932,-0.50416 5.68423,-0.60499 5.64224,0.68062 4.87818,2.18463 4.95374,1.71411 6.25518,0.57139 2.81271,0.62177 1.30141,-0.53776 z m -24.15584,23.35048 -0.41142,1.74771 -6.02845,-2.07542 -4.88659,-2.62156 0.20991,-1.42003 2.49366,-0.32769 2.39292,0.87387 3.5348,1.74771 2.69517,2.07541 z"
     title="Haiti"
     id="HT"
     inkscape:connector-curvature="0" />
  <path
     d="m 179.76227,215.8596 2.87151,0.88225 2.97224,0.46214 1.27623,0.0252 1.20066,0.28567 2.71196,2.12583 2.18301,1.15953 8.27025,2.59637 2.75394,4.47853 0.52058,1.40321 -2.13264,0.82344 -2.69518,0.2941 -2.56923,0.0419 -2.37612,-0.84863 -1.03273,-0.6554 -2.47688,-0.31929 0.62131,-0.60499 -1.0999,-0.27727 -1.37696,0.0588 -1.01595,1.72249 -1.12509,1.36122 -2.16621,-0.13445 -0.83123,-1.15956 -1.13349,0.52097 -0.92358,0.85705 -1.0915,3.20974 -1.7716,-1.59647 -1.92273,-1.3276 -2.40971,-0.55455 -4.86978,-0.0924 -2.30056,-0.42854 -1.91433,-2.71398 -0.75565,-0.77304 -1.92274,-0.7058 -1.91433,-3.11733 -0.68849,-0.42851 -5.19724,-0.6638 -1.06632,-1.70571 0.31906,-1.54605 1.72961,-1.89055 0.84802,-0.53776 2.87149,0.084 2.74556,-0.57135 1.20905,-0.80664 1.25944,-0.53776 9.94109,1.3696 2.29215,0.008 z"
     title="Jamaica"
     id="JM"
     inkscape:connector-curvature="0" />
  <path
     d="m 524.51827,245.83124 -0.60452,0.38652 -1.07471,-1.51246 -1.72961,-0.4117 -1.49454,-0.89069 -0.0336,-0.19326 0.0252,-0.44531 0.29387,-0.52095 0.76406,-0.39492 1.90594,1.21834 0.88999,1.52925 0.83121,0.69742 0.2267,0.53776 z m 2.32575,2.90725 -1.18387,0.52095 -1.00753,-0.7058 0.22669,-1.7057 0.95716,-0.0505 0.95717,0.75624 0.0503,1.18474 z"
     title="Saint Kitts and Nevis"
     id="KN"
     inkscape:connector-curvature="0" />
  <path
     d="m 119.39366,184.74522 -1.09989,0.37813 -0.85642,-0.15117 1.93112,-1.03351 0.49538,-0.35289 0.42821,-0.18485 0.445,0 0.56253,0.21005 0,0.15961 -1.90593,0.97466 z m -3.66074,0.0924 -0.2351,0.14272 -0.75564,-0.10911 -1.72962,1.01671 -0.74726,-0.0588 0.2267,-0.35292 0.36103,-0.3361 0.40301,-0.24365 0.37784,-0.10084 1.20905,-0.20165 0.57093,-0.0252 0.39463,0.22686 -0.0755,0.0419 z m -32.770331,8.93184 0.764056,0.47892 0.957164,-0.29407 0.277071,-0.52937 3.63555,0.38652 0.545747,1.03351 -2.770742,0.0252 -1.24263,0.6638 -0.621315,0.13444 -2.376131,-0.15961 -0.344244,-2.39471 0.663305,-0.25207 0.512169,0.90747 z"
     title="Cayman Islands"
     id="KY"
     inkscape:connector-curvature="0" />
  <path
     d="m 565.41612,328.98214 -1.32659,2.52074 -2.57763,-1.57966 -0.28547,-1.9914 0.22669,-1.20155 1.57008,-2.30229 1.22586,-1.49563 0.86481,-0.49575 0.50375,1.98299 z"
     title="Saint Lucia"
     id="LC"
     inkscape:connector-curvature="0" />
  <path
     d="m 515.55114,225.44682 -2.6364,0 0.19311,-0.53774 1.22584,-0.60498 0.8984,0.0503 0.36104,0.21846 z"
     title="Saint Martin"
     id="MF"
     inkscape:connector-curvature="0" />
  <path
     d="m 567.03659,312.73176 -0.24349,1.3864 -0.59613,0.26888 -0.8816,-1.15116 -3.87065,0.15962 -0.59613,-1.02512 -0.0336,-0.48732 1.86396,-1.74772 -2.1914,-0.47055 -0.86481,-0.75622 -1.85556,-3.68028 0.15116,-1.07551 0.77246,-0.56298 1.25102,-0.0755 2.36774,1.18475 1.7548,1.69729 0.59613,0.0252 0.2015,0.47895 -0.35264,1.19314 1.04952,1.00829 0.45341,0.74783 z"
     title="Martinique"
     id="MQ"
     inkscape:connector-curvature="0" />
  <path
     d="m 535.88671,258.08205 -0.13428,1.44523 -1.59529,-0.44534 -0.0336,-1.27717 0.74727,-1.29399 0.36943,-0.126 z"
     title="Montserrat"
     id="MS"
     inkscape:connector-curvature="0" />
  <path
     d="m 442.07608,216.17048 0.72207,0.48736 0.70527,-0.0672 -0.57093,-1.0167 0.52896,0 4.51715,0.62179 2.90509,1.05029 2.98903,0.49576 0.18472,3.43661 -2.30055,1.37801 -1.50293,1.42841 -1.22584,1.75613 -3.22413,2.04178 -3.87905,0.61341 -2.58602,0.0588 -0.96556,-0.0672 -0.94038,-0.35292 -1.94792,0.3361 -2.40971,-0.89906 -2.06545,0.22687 -4.09735,-0.21007 -1.53651,0.77305 -1.46933,0.17643 -1.43574,-0.14272 -1.22584,-0.35289 -3.03942,0.0252 -1.28462,-0.6806 0.52896,-3.90715 0.0421,-1.76451 -0.74727,-1.46204 -0.82282,-0.91587 -0.58774,-1.08391 1.19227,-0.71423 0.98234,-1.0419 0.31067,-1.57125 1.07471,-0.38652 1.25943,-0.17646 5.81016,0.73102 14.71013,0.41171 0.83962,0.126 0.56254,0.63858 z m 16.58248,8.36888 -1.84717,0.15117 -1.20066,-0.20165 -0.403,-0.73102 2.24178,-0.689 2.61121,0.10084 1.49452,0.41172 0.18471,0.27727 -3.08139,0.68062 z m -57.65665,1.12594 -0.21831,0.0252 -0.21829,-0.0252 -0.10067,-0.0672 -0.15116,-0.22688 -0.6717,-0.36969 -0.15945,-0.34452 0.15117,-0.35289 0.27707,-0.14289 1.36019,-0.0336 0.14272,0.0336 0.26868,0.25207 0.008,0.17644 -0.13427,0.17647 -0.2435,0.42853 -0.10083,0.10928 -0.0755,0.10911 -0.0336,0.19326 -0.10083,0.0588 z"
     title="Puerto Rico"
     id="PR"
     inkscape:connector-curvature="0" />
  <path
     d="m 512.91474,225.44682 2.6364,0 -0.0252,0.57978 -0.25189,0.64699 -1.58687,-0.54615 -0.80603,-0.57137 z"
     title="Saint Martin"
     id="SX"
     inkscape:connector-curvature="0" />
  <path
     d="m 306.56995,131.3643 -0.41142,0.26888 -1.36858,-0.87386 -0.19311,-0.6974 -0.48698,-0.0336 -0.81442,-0.63019 0.1931,-0.81503 1.86397,-0.0336 0.74725,2.26026 0.47019,0.55457 z m 5.15525,1.89895 -0.0924,0.34453 -1.33498,-0.9747 -2.56085,-0.008 -0.40302,-1.33598 0.98236,-0.2185 3.24932,0.47057 0.73887,1.15953 -0.57934,0.56296 z m -15.82682,-2.16782 2.69518,1.39481 1.62047,-0.21007 0.13428,0.30249 -0.87321,0.3193 -0.2183,0.26047 -2.59443,0.3613 -0.81442,-0.0672 -0.16789,-0.94107 0.21829,-1.42001 z"
     title="Turks and Caicos Islands"
     id="TC"
     inkscape:connector-curvature="0" />
  <path
     d="m 568.69064,392.43763 -1.28462,0.23527 0.15117,-0.94947 2.25018,-1.63849 3.44244,-1.10912 0.8732,-0.0419 -0.49538,1.47043 -4.93696,2.03341 z m -6.02847,24.89653 -3.82027,1.336 -9.95788,0.3193 -4.12253,-0.48734 -3.16537,0.37811 5.7682,-2.91566 0.68008,-1.22676 2.4517,-0.22687 0.69688,-0.36971 0.81443,-6.4447 -0.31905,-1.53766 -0.48698,-0.84864 -0.99076,-0.61338 -2.22498,-0.83184 -0.36945,-0.44533 1.40218,-0.71421 2.98904,-0.39494 2.23339,-0.773 4.62629,-0.15962 2.25018,-0.68899 3.78668,-0.19326 -1.86394,2.96608 -0.8732,1.10071 0.34424,2.66359 -0.42821,1.80654 0.49537,2.28548 1.13348,1.50402 -0.73046,1.47043 -0.10911,2.23507 -0.20992,0.80663 z"
     title="Trinidad and Tobago"
     id="TT"
     inkscape:connector-curvature="0" />
  <path
     d="m 558.83351,344.98045 -0.69688,0.37811 -1.72962,-1.61326 0.2099,-1.88217 1.04954,-1.03349 0.99074,-0.60499 1.01594,-0.0672 0.35264,1.55444 -0.24349,2.19306 -0.94877,1.07552 z m -1.21745,3.93234 -0.37782,0.26049 0.17632,0 -0.17632,0.17645 -0.11756,-0.17645 -0.18471,-0.10928 -0.2351,-0.0503 -0.27707,0.008 0,-0.17645 0.35264,0.10928 0.52896,-0.10928 0,-0.19325 -0.15945,-0.17645 -0.067,-0.12601 0.19311,-0.18486 0.65491,-0.42012 0.27707,-0.21846 0.0336,0.0924 0.008,0.0839 0.0336,0.0839 0.10066,0.0839 -0.33585,0.32769 -0.4282,0.7142 z m -2.55243,7.20094 -0.2351,0.008 -0.20991,-0.0839 0.0588,-0.0755 0.26867,-0.0588 0.12601,-0.15961 -0.0421,-0.21007 0.008,-0.23528 0.2099,-0.14273 0.16789,-0.008 0.0755,0.0924 0.0421,0.21848 -0.126,0.16806 -0.14273,0.13444 -0.0672,0.21007 -0.13428,0.14289 z"
     title="Saint Vincent and the Grenadines"
     id="VC"
     inkscape:connector-curvature="0" />
  <path
     d="m 485.46758,208.86035 0.33585,0.83184 -0.2015,-0.0169 -1.3434,-0.57137 -1.04113,-0.0419 -0.4282,-0.15117 -0.23508,-0.3109 2.08225,-0.0336 0.83121,0.29408 z m -2.52725,6.82281 -0.61292,0.17644 -0.39463,-0.0419 -0.13428,-0.35291 0.41982,-0.98311 2.3929,-0.10911 -1.67084,1.31078 z m -4.67667,1.52083 -1.84716,0.0924 -0.54576,-0.3109 1.04112,-0.76461 1.93114,-0.0924 0.56253,0.20165 -1.14187,0.87386 z"
     title="British Virgin Islands"
     id="VG"
     inkscape:connector-curvature="0" />
  <path
     d="m 472.34435,219.00212 -1.76321,0.21847 -2.44329,-1.14273 1.92272,-0.43694 1.24265,0.27729 1.04113,1.08391 z m 4.35761,-0.59657 -1.56169,0.6554 -1.04952,-0.0924 -0.40302,-0.23529 0.83123,-0.76461 2.183,0.43692 z m -2.48527,13.80527 1.97311,1.08391 2.39292,0 -2.49368,1.08394 -4.77742,0.10928 0.10911,-1.73931 2.79592,-0.53776 z"
     title="US Virgin Islands"
     id="VI"
     inkscape:connector-curvature="0" />
</svg>
