<svg xmlns="http://www.w3.org/2000/svg" viewBox="0 0 170.79 35.7"><defs><style>.cls-1{fill:#1c1c1b;}.cls-2{fill:#111;}.cls-3{fill:none;}.cls-4{fill:#95c11e;}</style></defs><title>logo-final</title><g id="Capa_2" data-name="Capa 2"><g id="Capa_1-2" data-name="Capa 1"><path class="cls-1" d="M19.88,34.75a2.28,2.28,0,0,1-.94-.18,2,2,0,0,1-.71-.49,2,2,0,0,1-.45-.73,2.56,2.56,0,0,1-.16-.89h0a2.58,2.58,0,0,1,.16-.87,2.32,2.32,0,0,1,.46-.73,2.08,2.08,0,0,1,.7-.5,2,2,0,0,1,.9-.19,3.77,3.77,0,0,1,.51,0,2.45,2.45,0,0,1,.43.11l.38.19.34.25-.33.38-.26-.2a1.24,1.24,0,0,0-.3-.16,1.89,1.89,0,0,0-.36-.11,2.81,2.81,0,0,0-.43,0,1.49,1.49,0,0,0-.67.14,1.62,1.62,0,0,0-.53.39,1.8,1.8,0,0,0-.35.58,2.07,2.07,0,0,0-.13.7h0a2,2,0,0,0,.13.74,1.66,1.66,0,0,0,.9,1,1.85,1.85,0,0,0,.72.13,2.09,2.09,0,0,0,.72-.12,2,2,0,0,0,.56-.32v-1.1H19.82V32.3h1.84v1.77a3.17,3.17,0,0,1-.77.48A2.53,2.53,0,0,1,19.88,34.75Z"/><path class="cls-1" d="M23.5,30.05H24v4.62H23.5Z"/><path class="cls-1" d="M27.37,34.75a1.64,1.64,0,0,1-.67-.14,1.58,1.58,0,0,1-.54-.37,1.53,1.53,0,0,1-.35-.54,1.57,1.57,0,0,1-.13-.65h0a1.65,1.65,0,0,1,.13-.66,1.53,1.53,0,0,1,.35-.54,1.45,1.45,0,0,1,.54-.37,1.75,1.75,0,0,1,1.37,0,1.55,1.55,0,0,1,.54.36,1.53,1.53,0,0,1,.35.54,1.57,1.57,0,0,1,.13.65v0a1.65,1.65,0,0,1-.13.66,2,2,0,0,1-.36.54,1.71,1.71,0,0,1-1.23.51Zm0-.44a1.21,1.21,0,0,0,.48-.1,1.19,1.19,0,0,0,.38-.27,1.28,1.28,0,0,0,.25-.4,1.37,1.37,0,0,0,.09-.49h0a1.29,1.29,0,0,0-.35-.91,1.46,1.46,0,0,0-.38-.27,1.13,1.13,0,0,0-.49-.1,1.09,1.09,0,0,0-.48.1,1.31,1.31,0,0,0-.38.27,1.33,1.33,0,0,0-.24.4,1.37,1.37,0,0,0-.09.49v0a1.33,1.33,0,0,0,.09.49,1.25,1.25,0,0,0,.26.41,1.19,1.19,0,0,0,.38.27A1.29,1.29,0,0,0,27.39,34.31Z"/><path class="cls-1" d="M32.47,34.74a1.42,1.42,0,0,1-.42-.06,1.52,1.52,0,0,1-.34-.15,1.93,1.93,0,0,1-.28-.22,1.78,1.78,0,0,1-.21-.27v.63h-.49V30.05h.49v2a1.86,1.86,0,0,1,.22-.27,1.49,1.49,0,0,1,.28-.23,1.26,1.26,0,0,1,.33-.16,1.42,1.42,0,0,1,.42-.06,1.44,1.44,0,0,1,.57.11,1.72,1.72,0,0,1,.51.33,1.86,1.86,0,0,1,.35.54A1.73,1.73,0,0,1,34,33v0a1.8,1.8,0,0,1-.13.71,1.86,1.86,0,0,1-.35.54,1.67,1.67,0,0,1-.5.33A1.47,1.47,0,0,1,32.47,34.74Zm-.09-.44a1.33,1.33,0,0,0,.45-.08,1,1,0,0,0,.36-.25,1.14,1.14,0,0,0,.25-.39,1.53,1.53,0,0,0,.09-.54h0a1.42,1.42,0,0,0-.09-.52,1.09,1.09,0,0,0-.25-.4,1.27,1.27,0,0,0-.36-.26,1.17,1.17,0,0,0-.45-.09,1,1,0,0,0-.44.1,1.08,1.08,0,0,0-.38.26,1.36,1.36,0,0,0-.27.39,1.44,1.44,0,0,0-.09.51v0a1.36,1.36,0,0,0,.09.51,1.17,1.17,0,0,0,.27.4,1.22,1.22,0,0,0,.38.26A1.12,1.12,0,0,0,32.38,34.3Z"/><path class="cls-1" d="M36.67,34.74a1.63,1.63,0,0,1-.45-.06,1.2,1.2,0,0,1-.39-.2.94.94,0,0,1-.39-.76h0a1,1,0,0,1,.11-.47.88.88,0,0,1,.28-.33,1.32,1.32,0,0,1,.45-.2,2,2,0,0,1,.56-.07,4.33,4.33,0,0,1,.55,0,3.28,3.28,0,0,1,.45.11v-.11a.82.82,0,0,0-.25-.65,1,1,0,0,0-.71-.22,2.09,2.09,0,0,0-.53.06,2.64,2.64,0,0,0-.47.17l-.14-.4a3,3,0,0,1,.54-.2,2.18,2.18,0,0,1,.65-.08,1.42,1.42,0,0,1,1,.36,1.26,1.26,0,0,1,.34,1v2h-.48v-.49a1.38,1.38,0,0,1-.46.39A1.41,1.41,0,0,1,36.67,34.74Zm.09-.4a1.49,1.49,0,0,0,.43-.06,1,1,0,0,0,.34-.18.77.77,0,0,0,.23-.28.71.71,0,0,0,.09-.36v-.3l-.42-.09a2.73,2.73,0,0,0-.53,0,1.28,1.28,0,0,0-.71.18.58.58,0,0,0-.25.48h0A.57.57,0,0,0,36,34a.53.53,0,0,0,.18.21.77.77,0,0,0,.26.12A.84.84,0,0,0,36.76,34.34Z"/><path class="cls-1" d="M40.16,30.05h.49v4.62h-.49Z"/><path class="cls-1" d="M44.94,30.24h.54l1.27,3.69L48,30.23h.41l1.22,3.7,1.27-3.69h.52L49.8,34.7h-.43l-1.21-3.59L46.94,34.7h-.42Z"/><path class="cls-1" d="M53,30.14h.56v.54H53Zm0,1.26h.49v3.27H53Z"/><path class="cls-1" d="M55.39,31.4h.48v.85a1.72,1.72,0,0,1,.22-.37,1.47,1.47,0,0,1,.31-.3,1.27,1.27,0,0,1,.37-.18,1.56,1.56,0,0,1,.44-.06v.52h0a1.39,1.39,0,0,0-.5.1,1.19,1.19,0,0,0-.42.28,1.73,1.73,0,0,0-.28.48,2.06,2.06,0,0,0-.1.65v1.3h-.48Z"/><path class="cls-1" d="M59,33.23a1.62,1.62,0,0,0,.12.47,1.46,1.46,0,0,0,.26.34,1.31,1.31,0,0,0,.36.21,1.14,1.14,0,0,0,.41.07,1.22,1.22,0,0,0,.59-.13,1.54,1.54,0,0,0,.44-.33l.31.27a2.46,2.46,0,0,1-.57.45,1.67,1.67,0,0,1-.78.17,1.7,1.7,0,0,1-.64-.13,1.5,1.5,0,0,1-.51-.35,1.7,1.7,0,0,1-.36-.54A1.93,1.93,0,0,1,58.5,33a2.09,2.09,0,0,1,.12-.67,1.79,1.79,0,0,1,.33-.55,1.53,1.53,0,0,1,.5-.36,1.45,1.45,0,0,1,.63-.13,1.37,1.37,0,0,1,.64.14,1.24,1.24,0,0,1,.48.37,1.53,1.53,0,0,1,.3.55,2.09,2.09,0,0,1,.1.67v.07a.38.38,0,0,1,0,.1Zm2.11-.4a1.45,1.45,0,0,0-.1-.41,1.19,1.19,0,0,0-.2-.35,1.08,1.08,0,0,0-.32-.24,1,1,0,0,0-.43-.09,1,1,0,0,0-.39.08,1,1,0,0,0-.32.23,1.07,1.07,0,0,0-.23.35,1.52,1.52,0,0,0-.12.43Z"/><path class="cls-1" d="M63.26,30.05h.49v4.62h-.49Z"/><path class="cls-1" d="M65.93,33.23a1.17,1.17,0,0,0,.13.47,1.06,1.06,0,0,0,.26.34,1.13,1.13,0,0,0,.35.21,1.14,1.14,0,0,0,.41.07,1.22,1.22,0,0,0,.59-.13,1.54,1.54,0,0,0,.44-.33l.3.27a2.22,2.22,0,0,1-.56.45,1.74,1.74,0,0,1-1.41,0,1.45,1.45,0,0,1-.52-.35,1.53,1.53,0,0,1-.35-.54,1.73,1.73,0,0,1-.13-.69,1.85,1.85,0,0,1,.12-.67,1.59,1.59,0,0,1,.32-.55,1.64,1.64,0,0,1,.5-.36,1.45,1.45,0,0,1,.63-.13,1.34,1.34,0,0,1,.64.14,1.24,1.24,0,0,1,.48.37,1.53,1.53,0,0,1,.3.55,2.09,2.09,0,0,1,.1.67v.07a.38.38,0,0,1,0,.1Zm2.11-.4a1.17,1.17,0,0,0-.1-.41,1.19,1.19,0,0,0-.2-.35,1.08,1.08,0,0,0-.32-.24,1,1,0,0,0-.43-.09.95.95,0,0,0-.71.31,1.4,1.4,0,0,0-.35.78Z"/><path class="cls-1" d="M71.23,34.73a2,2,0,0,1-.72-.13,2.09,2.09,0,0,1-.64-.35l.25-.35a2,2,0,0,0,.55.31,1.75,1.75,0,0,0,.58.11.84.84,0,0,0,.49-.14.44.44,0,0,0,.19-.38h0a.31.31,0,0,0-.07-.21.45.45,0,0,0-.18-.15.89.89,0,0,0-.26-.12l-.31-.1-.38-.12a1.42,1.42,0,0,1-.35-.17,1,1,0,0,1-.25-.25.65.65,0,0,1-.1-.38h0a1,1,0,0,1,.08-.39,1.09,1.09,0,0,1,.23-.29,1,1,0,0,1,.36-.19,1.29,1.29,0,0,1,.45-.07,1.9,1.9,0,0,1,.61.1,2.05,2.05,0,0,1,.56.26l-.22.37a1.77,1.77,0,0,0-.48-.23,1.41,1.41,0,0,0-.49-.09.72.72,0,0,0-.46.14.42.42,0,0,0-.17.33v0a.29.29,0,0,0,.07.2.6.6,0,0,0,.19.15,1.27,1.27,0,0,0,.26.11l.32.1.38.13a1.54,1.54,0,0,1,.34.17.88.88,0,0,1,.24.27.7.7,0,0,1,.09.37h0a.93.93,0,0,1-.09.42.81.81,0,0,1-.25.3,1,1,0,0,1-.36.2A1.76,1.76,0,0,1,71.23,34.73Z"/><path class="cls-1" d="M75.14,34.73a2,2,0,0,1-.72-.13,2.09,2.09,0,0,1-.64-.35L74,33.9a2,2,0,0,0,.55.31,1.75,1.75,0,0,0,.58.11.84.84,0,0,0,.49-.14.44.44,0,0,0,.19-.38h0a.31.31,0,0,0-.07-.21.45.45,0,0,0-.18-.15.89.89,0,0,0-.26-.12l-.31-.1-.38-.12a1.42,1.42,0,0,1-.35-.17.85.85,0,0,1-.25-.25.74.74,0,0,1-.1-.38h0a1,1,0,0,1,.08-.39,1.09,1.09,0,0,1,.23-.29,1,1,0,0,1,.36-.19,1.29,1.29,0,0,1,.45-.07,1.9,1.9,0,0,1,.61.1,2.05,2.05,0,0,1,.56.26l-.22.37a1.77,1.77,0,0,0-.48-.23,1.41,1.41,0,0,0-.49-.09.72.72,0,0,0-.46.14.42.42,0,0,0-.17.33v0a.29.29,0,0,0,.07.2.74.74,0,0,0,.19.15,1.56,1.56,0,0,0,.26.11l.32.1.38.13a1.29,1.29,0,0,1,.33.17.8.8,0,0,1,.25.27.7.7,0,0,1,.09.37h0a.93.93,0,0,1-.09.42.81.81,0,0,1-.25.3,1,1,0,0,1-.36.2A1.76,1.76,0,0,1,75.14,34.73Z"/><path class="cls-1" d="M83.21,34a2.29,2.29,0,0,1-.67.51,1.69,1.69,0,0,1-.78.18,1.73,1.73,0,0,1-.56-.09,1.26,1.26,0,0,1-.44-.25,1.24,1.24,0,0,1-.29-.39,1.19,1.19,0,0,1-.11-.51h0a1.13,1.13,0,0,1,.28-.76,2.13,2.13,0,0,1,.79-.52,2.34,2.34,0,0,1-.33-.49,1,1,0,0,1-.11-.48v0a1,1,0,0,1,.09-.41.94.94,0,0,1,.23-.33,1.28,1.28,0,0,1,.37-.23,1.42,1.42,0,0,1,.48-.08,1.18,1.18,0,0,1,.43.08,1.33,1.33,0,0,1,.34.22.91.91,0,0,1,.31.7v0a1,1,0,0,1-.28.7,2,2,0,0,1-.77.45l1,1c.09-.15.19-.3.27-.46s.18-.34.26-.52l.41.18q-.15.31-.3.6c-.11.18-.22.35-.34.51l.77.8-.38.29Zm-1.42.27a1.11,1.11,0,0,0,.59-.16,2.18,2.18,0,0,0,.52-.42l-1.19-1.22a1.43,1.43,0,0,0-.64.42.78.78,0,0,0-.2.53h0a.88.88,0,0,0,.06.33.83.83,0,0,0,.19.27.64.64,0,0,0,.3.17A.87.87,0,0,0,81.79,34.31ZM81.91,32a1.53,1.53,0,0,0,.64-.35.64.64,0,0,0,.22-.49h0a.57.57,0,0,0-.18-.44.59.59,0,0,0-.45-.17.65.65,0,0,0-.49.18.61.61,0,0,0-.18.45v0a.57.57,0,0,0,0,.18.49.49,0,0,0,.07.19,1.67,1.67,0,0,0,.13.2Z"/><path class="cls-1" d="M90.05,34.73a2.78,2.78,0,0,1-1-.17,3,3,0,0,1-.84-.54l.31-.36a2.91,2.91,0,0,0,.71.47,2,2,0,0,0,.81.15,1.14,1.14,0,0,0,.72-.21.65.65,0,0,0,.27-.54v0a.81.81,0,0,0,0-.27.6.6,0,0,0-.18-.22,1.25,1.25,0,0,0-.35-.19l-.57-.16a3.85,3.85,0,0,1-.66-.18,1.49,1.49,0,0,1-.47-.27.86.86,0,0,1-.28-.35,1.13,1.13,0,0,1-.08-.47v0a1.12,1.12,0,0,1,.1-.48,1.23,1.23,0,0,1,.3-.38,1.51,1.51,0,0,1,.47-.25,1.76,1.76,0,0,1,.58-.09,2.41,2.41,0,0,1,.85.13,2.56,2.56,0,0,1,.71.41l-.29.39a2.3,2.3,0,0,0-.63-.37,1.81,1.81,0,0,0-.65-.11,1.05,1.05,0,0,0-.69.2.63.63,0,0,0-.25.51h0a.88.88,0,0,0,0,.29.64.64,0,0,0,.19.22,1.21,1.21,0,0,0,.36.19,5.48,5.48,0,0,0,.61.17,2.47,2.47,0,0,1,1.09.45,1,1,0,0,1,.35.8h0a1.19,1.19,0,0,1-.11.51,1.23,1.23,0,0,1-.31.4,1.46,1.46,0,0,1-.48.25A2,2,0,0,1,90.05,34.73Z"/><path class="cls-1" d="M94.23,34.74a1.68,1.68,0,0,1-.45-.06,1.5,1.5,0,0,1-.4-.2.94.94,0,0,1-.27-.32.87.87,0,0,1-.1-.44h0a1,1,0,0,1,.1-.47.91.91,0,0,1,.29-.33,1.19,1.19,0,0,1,.44-.2,2,2,0,0,1,.57-.07,4.44,4.44,0,0,1,.55,0,3.69,3.69,0,0,1,.45.11v-.11a.8.8,0,0,0-.26-.65,1,1,0,0,0-.71-.22,2.2,2.2,0,0,0-.53.06,2.54,2.54,0,0,0-.46.17l-.15-.4a2.79,2.79,0,0,1,.55-.2,2.12,2.12,0,0,1,.64-.08,1.39,1.39,0,0,1,1.05.36,1.23,1.23,0,0,1,.35,1v2h-.48v-.49a1.61,1.61,0,0,1-.46.39A1.42,1.42,0,0,1,94.23,34.74Zm.1-.4a1.42,1.42,0,0,0,.42-.06,1,1,0,0,0,.58-.46.83.83,0,0,0,.08-.36v-.3L95,33.07a2.92,2.92,0,0,0-.54,0,1.24,1.24,0,0,0-.7.18.56.56,0,0,0-.25.48h0a.57.57,0,0,0,.06.27.55.55,0,0,0,.19.21.72.72,0,0,0,.25.12A.89.89,0,0,0,94.33,34.34Z"/><path class="cls-1" d="M97.87,31.83h-.45V31.4h.45v-.28a1.1,1.1,0,0,1,.28-.84.94.94,0,0,1,.7-.25h.3l.24.06v.43l-.24-.06-.24,0q-.57,0-.57.69v.27h1v.42h-1v2.84h-.48Z"/><path class="cls-1" d="M101.05,33.23a1.36,1.36,0,0,0,.13.47,1.23,1.23,0,0,0,.26.34,1.25,1.25,0,0,0,.35.21,1.18,1.18,0,0,0,.41.07,1.2,1.2,0,0,0,.59-.13,1.73,1.73,0,0,0,.45-.33l.3.27a2.22,2.22,0,0,1-.56.45,1.74,1.74,0,0,1-.79.17,1.69,1.69,0,0,1-.63-.13,1.54,1.54,0,0,1-.52-.35,1.68,1.68,0,0,1-.35-.54,1.73,1.73,0,0,1-.13-.69,2.09,2.09,0,0,1,.11-.67,1.79,1.79,0,0,1,.33-.55,1.64,1.64,0,0,1,.5-.36,1.45,1.45,0,0,1,.63-.13,1.34,1.34,0,0,1,.64.14,1.28,1.28,0,0,1,.49.37,1.38,1.38,0,0,1,.29.55,2.09,2.09,0,0,1,.1.67v.17Zm2.11-.4a1.87,1.87,0,0,0-.09-.41,1.21,1.21,0,0,0-.21-.35,1,1,0,0,0-.32-.24.93.93,0,0,0-.42-.09,1,1,0,0,0-.39.08,1,1,0,0,0-.33.23,1.25,1.25,0,0,0-.23.35,1.52,1.52,0,0,0-.12.43Z"/><path class="cls-1" d="M106.36,34.72a1.5,1.5,0,0,1-.37,0,.77.77,0,0,1-.29-.17.7.7,0,0,1-.19-.28,1.11,1.11,0,0,1-.07-.43v-2H105V31.4h.46v-1h.49v1h1v.43h-1v1.9a.52.52,0,0,0,.15.43.62.62,0,0,0,.4.12.85.85,0,0,0,.23,0,.75.75,0,0,0,.24-.08v.42a1.08,1.08,0,0,1-.27.1A1.51,1.51,0,0,1,106.36,34.72Z"/><path class="cls-1" d="M109.09,35.7a1.45,1.45,0,0,1-.37,0,2.19,2.19,0,0,1-.33-.12l.17-.39.24.09a1.12,1.12,0,0,0,.27,0,.51.51,0,0,0,.37-.13,1.28,1.28,0,0,0,.3-.48l-1.49-3.26h.54L110,34.13l1-2.73h.53l-1.38,3.38a2,2,0,0,1-.46.71A1,1,0,0,1,109.09,35.7Z"/><path class="cls-1" d="M117.46,30.21h.47l2,4.46h-.53l-.53-1.17h-2.41L116,34.67h-.51Zm1.24,2.84-1-2.26-1,2.26Z"/><path class="cls-1" d="M121.5,31.4H122v.65a1.94,1.94,0,0,1,.23-.27,1,1,0,0,1,.27-.23,1.19,1.19,0,0,1,.34-.16,1.31,1.31,0,0,1,.41-.06,1.38,1.38,0,0,1,.57.11,1.56,1.56,0,0,1,.5.33,1.7,1.7,0,0,1,.36.54,1.73,1.73,0,0,1,.13.71v0a1.8,1.8,0,0,1-.13.71,1.68,1.68,0,0,1-.35.54,1.56,1.56,0,0,1-.5.33,1.47,1.47,0,0,1-.58.12,1.31,1.31,0,0,1-.41-.06,1.42,1.42,0,0,1-.35-.15,1.44,1.44,0,0,1-.27-.22A1.86,1.86,0,0,1,122,34v1.64h-.49Zm1.65,2.9a1.33,1.33,0,0,0,.45-.08A.93.93,0,0,0,124,34a1.14,1.14,0,0,0,.25-.39,1.53,1.53,0,0,0,.1-.54h0a1.42,1.42,0,0,0-.1-.52,1.09,1.09,0,0,0-.25-.4,1,1,0,0,0-.36-.26,1.17,1.17,0,0,0-.45-.09,1,1,0,0,0-.44.1,1.17,1.17,0,0,0-.38.26,1.16,1.16,0,0,0-.26.39,1.25,1.25,0,0,0-.1.51v0a1.19,1.19,0,0,0,.1.51,1,1,0,0,0,.26.4,1.35,1.35,0,0,0,.38.26A1.12,1.12,0,0,0,123.15,34.3Z"/><path class="cls-1" d="M126.46,31.4H127v.65l.22-.27a1.49,1.49,0,0,1,.28-.23,1.33,1.33,0,0,1,.34-.16,1.35,1.35,0,0,1,.41-.06,1.46,1.46,0,0,1,.58.11,1.81,1.81,0,0,1,.5.33,1.53,1.53,0,0,1,.35.54,1.73,1.73,0,0,1,.13.71v0a1.8,1.8,0,0,1-.13.71,1.53,1.53,0,0,1-.35.54,1.56,1.56,0,0,1-.5.33,1.47,1.47,0,0,1-.58.12,1.35,1.35,0,0,1-.41-.06,1.6,1.6,0,0,1-.35-.15,1.44,1.44,0,0,1-.27-.22A1.86,1.86,0,0,1,127,34v1.64h-.49Zm1.65,2.9a1.33,1.33,0,0,0,.45-.08,1.05,1.05,0,0,0,.37-.25,1.3,1.3,0,0,0,.25-.39,1.53,1.53,0,0,0,.08-.54h0a1.42,1.42,0,0,0-.08-.52,1.11,1.11,0,0,0-.26-.4,1,1,0,0,0-.36-.26,1.13,1.13,0,0,0-.45-.09,1,1,0,0,0-.44.1,1.29,1.29,0,0,0-.38.26,1.33,1.33,0,0,0-.26.39,1.25,1.25,0,0,0-.1.51v0a1.19,1.19,0,0,0,.1.51,1.16,1.16,0,0,0,.26.4,1.51,1.51,0,0,0,.38.26A1.15,1.15,0,0,0,128.11,34.3Z"/><path class="cls-1" d="M131.42,31.4h.49v.85a1.72,1.72,0,0,1,.22-.37,1.7,1.7,0,0,1,.3-.3,1.33,1.33,0,0,1,.38-.18,1.51,1.51,0,0,1,.44-.06v.52h0a1.39,1.39,0,0,0-.5.1,1.19,1.19,0,0,0-.42.28,1.52,1.52,0,0,0-.28.48,1.81,1.81,0,0,0-.1.65v1.3h-.49Z"/><path class="cls-1" d="M136.24,34.75a1.6,1.6,0,0,1-.67-.14,1.72,1.72,0,0,1-.55-.37,1.68,1.68,0,0,1-.35-.54,1.75,1.75,0,0,1-.13-.65h0a1.85,1.85,0,0,1,.13-.66,1.68,1.68,0,0,1,.35-.54,1.75,1.75,0,0,1,1.23-.51,1.51,1.51,0,0,1,.68.14,1.69,1.69,0,0,1,.55.36,1.53,1.53,0,0,1,.35.54A1.75,1.75,0,0,1,138,33v0a1.84,1.84,0,0,1-.12.66,2,2,0,0,1-.36.54,1.66,1.66,0,0,1-.55.37A1.72,1.72,0,0,1,136.24,34.75Zm0-.44a1.17,1.17,0,0,0,.87-.37,1.28,1.28,0,0,0,.25-.4,1.36,1.36,0,0,0,.08-.49h0a1.35,1.35,0,0,0-.08-.5,1.59,1.59,0,0,0-.26-.41,1.36,1.36,0,0,0-.39-.27,1.06,1.06,0,0,0-.48-.1,1.13,1.13,0,0,0-.49.1,1.14,1.14,0,0,0-.37.27,1.36,1.36,0,0,0-.25.4A1.63,1.63,0,0,0,135,33v0a1.34,1.34,0,0,0,.1.49,1.22,1.22,0,0,0,.25.41,1.46,1.46,0,0,0,.38.27A1.29,1.29,0,0,0,136.25,34.31Z"/><path class="cls-1" d="M139.27,31.4h.54l1.1,2.71L142,31.4h.52l-1.42,3.29h-.43Z"/><path class="cls-1" d="M145,34.74a1.74,1.74,0,0,1-.45-.06,1.44,1.44,0,0,1-.39-.2.94.94,0,0,1-.27-.32.87.87,0,0,1-.11-.44h0a.91.91,0,0,1,.39-.8,1.27,1.27,0,0,1,.44-.2,2.07,2.07,0,0,1,.57-.07,4.44,4.44,0,0,1,.55,0,3.69,3.69,0,0,1,.45.11v-.11A.86.86,0,0,0,146,32a1.05,1.05,0,0,0-.72-.22,2.2,2.2,0,0,0-.53.06,2.85,2.85,0,0,0-.46.17l-.15-.4a3,3,0,0,1,.55-.2,2.12,2.12,0,0,1,.64-.08,1.43,1.43,0,0,1,1.06.36,1.26,1.26,0,0,1,.34,1v2h-.48v-.49a1.49,1.49,0,0,1-.46.39A1.42,1.42,0,0,1,145,34.74Zm.1-.4a1.42,1.42,0,0,0,.42-.06,1,1,0,0,0,.35-.18.89.89,0,0,0,.23-.28.71.71,0,0,0,.09-.36v-.3l-.42-.09a2.76,2.76,0,0,0-.54,0,1.27,1.27,0,0,0-.7.18.58.58,0,0,0-.25.48h0a.47.47,0,0,0,.07.27.46.46,0,0,0,.18.21.77.77,0,0,0,.26.12A.81.81,0,0,0,145.14,34.34Z"/><path class="cls-1" d="M148.54,30.05H149v4.62h-.49Z"/><path class="cls-1" d="M152,34.73a2.07,2.07,0,0,1-.72-.13,2.09,2.09,0,0,1-.64-.35l.25-.35a2,2,0,0,0,.55.31,1.75,1.75,0,0,0,.58.11.81.81,0,0,0,.49-.14.44.44,0,0,0,.19-.38h0a.31.31,0,0,0-.07-.21.45.45,0,0,0-.18-.15.89.89,0,0,0-.26-.12l-.31-.1-.38-.12a1.42,1.42,0,0,1-.35-.17.85.85,0,0,1-.25-.25.65.65,0,0,1-.1-.38h0a1,1,0,0,1,.08-.39.83.83,0,0,1,.24-.29.79.79,0,0,1,.35-.19,1.27,1.27,0,0,1,.44-.07,1.91,1.91,0,0,1,.62.1,2.05,2.05,0,0,1,.56.26l-.22.37a1.77,1.77,0,0,0-.48-.23,1.36,1.36,0,0,0-.48-.09.75.75,0,0,0-.47.14.42.42,0,0,0-.17.33v0a.29.29,0,0,0,.07.2.6.6,0,0,0,.19.15,1.16,1.16,0,0,0,.27.11l.31.1.38.13a1.35,1.35,0,0,1,.34.17.88.88,0,0,1,.24.27.7.7,0,0,1,.09.37h0a.93.93,0,0,1-.09.42.89.89,0,0,1-.24.3,1.15,1.15,0,0,1-.38.2A1.58,1.58,0,0,1,152,34.73Z"/><path class="cls-2" d="M152.82,13.73l-.42-.07c-1.14-.19-1.61-.43-1.61-1s.28-.8,1.17-.8a1.58,1.58,0,0,1,1.42,1c0,.06.06.09.15.05l1.48-.59c.08,0,.13-.08.09-.22a2.91,2.91,0,0,0-3-1.87c-2.25,0-3.38,1.16-3.38,2.81a2.54,2.54,0,0,0,2.6,2.59l.31,0c1.17.14,1.53.47,1.53,1s-.4.85-1.28.85a1.65,1.65,0,0,1-1.54-1c0-.1,0-.1-.13-.07L148.6,17c-.09,0-.11.1,0,.24.43,1.24,1.51,1.94,3.23,1.94,2,0,3.6-.86,3.6-2.82C155.38,14.82,154.44,14,152.82,13.73Z"/><path class="cls-2" d="M158.07,16.66h-1.79c-.16,0-.26.07-.26.31v1.78c0,.19.06.25.23.25H158c.2,0,.23-.07.23-.28V16.86C158.27,16.69,158.23,16.66,158.07,16.66Z"/><path class="cls-2" d="M170.58,16.69H168.8c-.15,0-.26.07-.26.32v1.77c0,.19.07.26.23.26h1.79c.2,0,.23-.08.23-.28V16.89C170.79,16.72,170.75,16.69,170.58,16.69Z"/><path class="cls-2" d="M168,18.83c-1.39-2.81-3.18-6.45-4.34-8.71,0,0-.07,0-.15,0s-.14,0-.15,0c-1,1.86-3,5.9-4.31,8.71-.06.12,0,.17.06.17h2.11c.16,0,.19,0,.22-.14.13-.3.3-.73.45-1.09H165c.13.32.32.79.47,1.13a.14.14,0,0,0,.15.1H168C168.08,19,168.09,19,168,18.83Zm-5.48-2.71.87-1.92.9,1.92Z"/><path class="cls-3" d="M32.91,9.36a2.62,2.62,0,0,0-2.68,2.8A2.69,2.69,0,0,0,33,15a2.63,2.63,0,0,0,2.57-2.8A2.65,2.65,0,0,0,32.91,9.36Z"/><path d="M71,18.65a.33.33,0,0,0,0-.06l0,.07Z"/><path class="cls-2" d="M33.65,5.18c-1.43,0-3.26.63-3.65,1.82V5.74c0-.32,0-.32-.22-.32H25.92c-.18,0-.18,0-.18.32v17c0,.37,0,.37.18.37H30c.19,0,.21-.05.21-.34V17.45A4,4,0,0,0,33.43,19c3.73.16,6.51-2.17,6.51-7S36.9,5.18,33.65,5.18ZM33,15a2.69,2.69,0,0,1-2.75-2.8,2.62,2.62,0,0,1,2.68-2.8,2.65,2.65,0,0,1,2.64,2.8A2.63,2.63,0,0,1,33,15Z"/><path class="cls-2" d="M50.42,5.18c-1.43,0-3.26.63-3.65,1.82V5.74c0-.32,0-.32-.22-.32H42.69c-.18,0-.18,0-.18.32v17c0,.37,0,.37.18.37h4.1c.19,0,.21-.05.21-.34V17.45A4,4,0,0,0,50.2,19c3.73.16,6.51-2.17,6.51-7S53.67,5.18,50.42,5.18ZM49.75,15A2.69,2.69,0,0,1,47,12.16a2.62,2.62,0,0,1,2.67-2.8,2.65,2.65,0,0,1,2.65,2.8A2.63,2.63,0,0,1,49.75,15Z"/><path class="cls-2" d="M66.81,5a3.54,3.54,0,0,0-3.17,2V5.74c0-.32,0-.32-.21-.32H59.49c-.21,0-.21,0-.21.32V18.4c0,.37,0,.37.21.37h4.07c.16,0,.21-.05.21-.29V10.36a1.84,1.84,0,0,1,1.56-1c1,0,1.46.63,1.46,1.82a.94.94,0,0,0,.66-.16c.32-.29,2.19-2.25,2.75-2.8A3.07,3.07,0,0,0,66.81,5Z"/><path class="cls-2" d="M78.19,5a6.83,6.83,0,0,0-7.06,7.11,7.06,7.06,0,1,0,14.12,0A6.79,6.79,0,0,0,78.19,5Zm0,10a2.79,2.79,0,0,1-2.72-2.91,2.71,2.71,0,0,1,2.7-2.85,2.66,2.66,0,0,1,2.64,2.85A2.71,2.71,0,0,1,78.24,15Z"/><path class="cls-2" d="M95.22,5.42c-.13,0-.21.1-.26.26-1,3-2.09,6-2.09,6s-1-2.86-2.2-6c0-.18-.16-.18-.29-.18H85.81c-.27,0-.35,0-.11.42,2.59,5.24,4.37,8.73,6.61,13.12a.54.54,0,0,0,.45.29.42.42,0,0,0,.4-.27c2.33-4.57,3.88-7.75,6.61-13.19.16-.37.13-.37-.11-.37Z"/><path class="cls-3" d="M106.67,8.64a2.26,2.26,0,0,0-2.22,2.25h4.47A2.15,2.15,0,0,0,106.67,8.64Z"/><path class="cls-2" d="M107.07,5.07a6.59,6.59,0,0,0-6.95,7c0,4.49,2.93,7.14,6.95,7.14a7.71,7.71,0,0,0,4.68-1.56c.21-.19.29-.37.13-.61-.53-.82-1.27-1.88-1.82-2.64-.13-.19-.29-.24-.37-.14a3.39,3.39,0,0,1-2.54,1.33,2.42,2.42,0,0,1-2.7-2.33h7.91c.39,0,.47-.05.53-.32a6.92,6.92,0,0,0,.16-1.8A5.8,5.8,0,0,0,107.07,5.07Zm-2.62,5.82a2.26,2.26,0,0,1,2.22-2.25,2.15,2.15,0,0,1,2.25,2.25Z"/><path class="cls-2" d="M126.72.84h-4.39c-.24,0-.24,0-.24.24V18.53c0,.27,0,.24.24.24h4.39c.24,0,.26,0,.26-.24V1.08C127,.87,127,.84,126.72.84Z"/><path class="cls-2" d="M143.54.84h-14c-.21,0-.21.06-.21.27V4.52c0,.16,0,.18.18.18l4.66,0V18.53c0,.27,0,.24.26.24h4.37c.21,0,.23,0,.23-.24V4.65l4.52,0c.16,0,.19,0,.19-.18V1.11C143.75.9,143.72.84,143.54.84Z"/><path class="cls-2" d="M22.6,18.37c-2.35-4.73-5.23-10.56-7.53-15.15L12.78,8.45l2,4.24H11.18L9.75,16.16H16.2c.27.67.67,1.65,1,2.37a.29.29,0,0,0,.32.22h5C22.73,18.75,22.76,18.72,22.6,18.37Z"/><path class="cls-4" d="M13.48.06c0-.08-.17-.06-.32-.06s-.3,0-.33.06c-1.59,3-4.44,8.69-6.94,13.85L2.34,9.71,0,14.13l3.7,4.54,0,0h0a.17.17,0,0,0,.16.07H8.32c.34,0,.39-.08.47-.29l0-.07c.26-.64.59-1.51.9-2.23h0l1.43-3.48,1.14-2.78,2.9-6.42C14.65,2.37,14,1,13.48.06Z"/><rect class="cls-2" x="115.47" y="10.32" width="5.38" height="3.06"/></g></g></svg>